<svg xmlns="http://www.w3.org/2000/svg" viewBox="0 0 800 600">
  <style>
    :root {
      --background-color: transparent;
      --text-color: #999;
      --line-color: #666;
      --nav-item-color: #999;
      --line-width: 1px;
    }
    rect {
      fill: var(--background-color);
      stroke: var(--line-color);
      stroke-width: var(--line-width);
    }
    line {
      stroke: var(--line-color);
      stroke-width: var(--line-width);
    }
    .nav-item {
      stroke: var(--nav-item-color);
    }
  </style>

  <!-- Level 1 -->
  <rect x="10" y="10" width="780" height="580"/>
  <line x1="150" y1="10" x2="150" y2="590" stroke-dasharray="5,5"/>
  <!-- Level 1 Navigation Items -->
  <rect class="nav-item" x="20" y="20" width="120" height="30"/>
  <rect class="nav-item" x="20" y="60" width="120" height="30"/>
  <rect class="nav-item" x="20" y="100" width="120" height="30"/>
  
  <!-- Level 2 -->
  <rect x="160" y="20" width="620" height="560"/>
  <line x1="300" y1="20" x2="300" y2="580" stroke-dasharray="5,5"/>
  <!-- Level 2 Navigation Items -->
  <rect class="nav-item" x="170" y="30" width="120" height="30"/>
  <rect class="nav-item" x="170" y="70" width="120" height="30"/>
  <rect class="nav-item" x="170" y="110" width="120" height="30"/>
  
  <!-- Level 3 -->
  <rect x="310" y="30" width="460" height="540"/>
  <line x1="450" y1="30" x2="450" y2="570" stroke-dasharray="5,5"/>
  <!-- Level 3 Navigation Items -->
  <rect class="nav-item" x="320" y="40" width="120" height="30"/>
  <rect class="nav-item" x="320" y="80" width="120" height="30"/>
  <rect class="nav-item" x="320" y="120" width="120" height="30"/>
  
  <!-- Level 4 -->
  <rect x="460" y="40" width="300" height="520"/>
  <line x1="600" y1="40" x2="600" y2="560" stroke-dasharray="5,5"/>
  <!-- Level 4 Navigation Items -->
  <rect class="nav-item" x="470" y="50" width="120" height="30"/>
  <rect class="nav-item" x="470" y="90" width="120" height="30"/>
  <rect class="nav-item" x="470" y="130" width="120" height="30"/>
</svg>
