<?xml version="1.0" encoding="UTF-8"?>
<svg xmlns="http://www.w3.org/2000/svg" xmlns:xlink="http://www.w3.org/1999/xlink" version="1.1" viewBox="-1 -1 702 262">
    <defs />
    <g>
        <rect x="0" y="0" width="700" height="260" fill="none" stroke="#000000" stroke-width="1" vector-effect="non-scaling-stroke" />
        <rect x="170" y="10" width="520" height="240" fill="none" stroke="#000000" stroke-width="1" vector-effect="non-scaling-stroke" />
        <rect x="10" y="10" width="140" height="30" fill="none" stroke="#000000" stroke-width="1" vector-effect="non-scaling-stroke" />
        <text x="80" y="29" fill="#000000" font-family="Helvetica" font-size="12px" text-anchor="middle">A</text>
        <rect x="10" y="50" width="140" height="30" fill="none" stroke="#000000" stroke-width="1" vector-effect="non-scaling-stroke" />
        <rect x="10" y="90" width="140" height="30" fill="none" stroke="#000000" stroke-width="1" vector-effect="non-scaling-stroke" />
        <rect x="180" y="20" width="140" height="30" fill="none" stroke="#000000" stroke-width="1" vector-effect="non-scaling-stroke" />
        <text x="250" y="39" fill="#000000" font-family="Helvetica" font-size="12px" text-anchor="middle">B</text>
        <rect x="180" y="60" width="140" height="30" fill="none" stroke="#000000" stroke-width="1" vector-effect="non-scaling-stroke" />
        <rect x="180" y="100" width="140" height="30" fill="none" stroke="#000000" stroke-width="1" vector-effect="non-scaling-stroke" />
        <rect x="0" y="0" width="160" height="260" fill="none" stroke="#000000" stroke-width="1" stroke-dasharray="3 3" vector-effect="non-scaling-stroke" />
        <rect x="340" y="20" width="340" height="220" fill="none" stroke="#000000" stroke-width="1" vector-effect="non-scaling-stroke" />
        <rect x="350" y="30" width="140" height="30" fill="none" stroke="#000000" stroke-width="1" vector-effect="non-scaling-stroke" />
        <text x="420" y="49" fill="#000000" font-family="Helvetica" font-size="12px" text-anchor="middle">C</text>
        <rect x="350" y="110" width="140" height="30" fill="none" stroke="#000000" stroke-width="1" vector-effect="non-scaling-stroke" />
        <rect x="350" y="70" width="140" height="30" fill="none" stroke="#000000" stroke-width="1" vector-effect="non-scaling-stroke" />
        <rect x="170" y="10" width="160" height="240" fill="none" stroke="#000000" stroke-width="1" stroke-dasharray="3 3" vector-effect="non-scaling-stroke" />
        <rect x="520" y="40" width="140" height="30" fill="none" stroke="#000000" stroke-width="1" vector-effect="non-scaling-stroke" />
        <text x="590" y="59" fill="#000000" font-family="Helvetica" font-size="12px" text-anchor="middle">D</text>
        <rect x="520" y="120" width="140" height="30" fill="none" stroke="#000000" stroke-width="1" vector-effect="non-scaling-stroke" />
        <rect x="520" y="80" width="140" height="30" fill="none" stroke="#000000" stroke-width="1" vector-effect="non-scaling-stroke" />
        <rect x="510" y="30" width="160" height="200" fill="none" stroke="#000000" stroke-width="1" vector-effect="non-scaling-stroke" />
        <rect x="340" y="20" width="160" height="220" fill="none" stroke="#000000" stroke-width="1" stroke-dasharray="3 3" vector-effect="non-scaling-stroke" />
    </g>
</svg>