<?xml version="1.0" encoding="iso-8859-1"?>
<svg xmlns="http://www.w3.org/2000/svg" viewBox="0 0 512 512" width="100%" height="100%" fill="#888">
	<g>
		<path d="M464,128H320V96c0-35.29-28.71-64-64-64H112L96,0H48C21.49,0,0,21.49,0,48v416c0,26.51,21.49,48,48,48h416
			c26.51,0,48-21.49,48-48V176C512,149.49,490.51,128,464,128z M472,464c0,4.418-3.582,8-8,8H48c-4.418,0-8-3.582-8-8V48
			c0-4.418,3.582-8,8-8h36.686L104,72h152c13.255,0,24,10.745,24,24v32H160c-26.51,0-48,21.49-48,48v208c0,26.51,21.49,48,48,48
			h304c4.418,0,8-3.582,8-8V464z M432,384c0,4.418-3.582,8-8,8H160c-4.418,0-8-3.582-8-8V176c0-4.418,3.582-8,8-8h304
			c4.418,0,8,3.582,8,8V384z"/>
		<path d="M256,216c-22.091,0-40,17.909-40,40s17.909,40,40,40s40-17.909,40-40S278.091,216,256,216z"/>
		<path d="M352,216c-22.091,0-40,17.909-40,40s17.909,40,40,40s40-17.909,40-40S374.091,216,352,216z"/>
		<path d="M256,312c-22.091,0-40,17.909-40,40s17.909,40,40,40s40-17.909,40-40S278.091,312,256,312z"/>
	</g>
</svg>